<?xml version="1.0" encoding="utf-8"?>
<!-- Generator: Adobe Illustrator 20.1.0, SVG Export Plug-In . SVG Version: 6.00 Build 0)  -->
<svg version="1.1" id="Calque_1" xmlns="http://www.w3.org/2000/svg" xmlns:xlink="http://www.w3.org/1999/xlink" x="0px" y="0px"
	 viewBox="0 0 488 207.7" style="enable-background:new 0 0 488 207.7;" xml:space="preserve">
<style type="text/css">
	.st0{fill:#2E3133;}
	.st1{fill:#1EB2FC;}
	.st2{opacity:0.25;clip-path:url(#SVGID_2_);enable-background:new    ;}
	.st3{opacity:0.25;clip-path:url(#SVGID_2_);fill:#FFFFFF;enable-background:new    ;}
	.st4{fill:#56CC94;}
	.st5{opacity:0.25;clip-path:url(#SVGID_4_);enable-background:new    ;}
	.st6{opacity:0.25;clip-path:url(#SVGID_4_);fill:#FFFFFF;enable-background:new    ;}
	.st7{fill:#CC9A54;}
	.st8{opacity:0.25;clip-path:url(#SVGID_6_);enable-background:new    ;}
	.st9{opacity:0.25;clip-path:url(#SVGID_6_);fill:#FFFFFF;enable-background:new    ;}
</style>
<g id="Calque_1_1_">
	<title>weblogo_tri</title>
	<g id="Calque_2">
		<rect x="327.8" y="96.8" class="st0" width="31.9" height="13.5"/>
	</g>
	<g id="Calque_2_2_">
		<rect x="128.8" y="96.8" class="st0" width="31.9" height="13.5"/>
	</g>
	<g>
		<polygon class="st0" points="179.5,66.7 179.5,141.1 244,178.3 308.4,141.1 308.4,66.7 244,29.5 		"/>
		<path class="st0" d="M244,0l-90,51.9v103.9l90,51.9l90-51.9V51.9L244,0z M321.4,148.6l-6.5,3.8l-64.5,37.2l-6.5,3.8l-6.5-3.8
			L173,152.3l-6.5-3.8V59.1l6.5-3.8l64.4-37.2l6.5-3.8l0,0l6.5,3.8l64.5,37.2l6.5,3.8V148.6z"/>
	</g>
	<g>
		<polygon points="308.4,141.1 308.4,66.7 179.5,141.1 244,178.3 		"/>
		<polygon points="321.4,59.2 321.4,148.6 314.9,152.3 250.5,189.5 244,193.3 237.5,189.5 173,152.3 166.5,148.6 154.1,155.8 
			244,207.7 334,155.8 334,51.9 		"/>
	</g>
	<polygon class="st1" points="179.5,141.1 179.5,66.7 243.9,29.5 308.4,66.7 308.4,141.1 243.9,178.3 	"/>
	<g>
		<defs>
			<polygon id="SVGID_1_" points="179.5,141.1 179.5,66.7 243.9,29.5 308.4,66.7 308.4,141.1 243.9,178.3 			"/>
		</defs>
		<clipPath id="SVGID_2_">
			<use xlink:href="#SVGID_1_"  style="overflow:visible;"/>
		</clipPath>
		<polygon class="st2" points="243.9,213.3 243.9,104 338.7,49.3 338.7,158.7 		"/>
		<polygon class="st3" points="243.9,213.3 243.9,104 149.2,49.3 149.2,158.7 		"/>
	</g>
	<g>
		<polygon class="st0" points="421.5,48.9 373.9,76.3 373.9,131.3 421.5,158.9 469.1,131.4 469.1,76.4 		"/>
		<path class="st0" d="M421.5,27.1L355,65.5v76.8l66.5,38.4l66.5-38.4V65.5L421.5,27.1z M478.7,136.9l-4.8,2.8l-47.6,27.5l-4.8,2.8
			l-4.8-2.8L369,139.7l-4.8-2.8V70.8L369,68l47.7-27.5l4.8-2.8l0,0l4.8,2.8L473.9,68l4.8,2.8L478.7,136.9L478.7,136.9z"/>
	</g>
	<g>
		<polygon points="469.1,131.4 469.1,76.4 373.9,131.4 421.5,158.9 		"/>
		<polygon points="478.7,70.9 478.7,136.9 473.9,139.7 426.3,167.2 421.5,169.9 416.7,167.2 369,139.7 364.3,136.9 355.1,142.2 
			421.5,180.6 488,142.2 488,65.5 		"/>
	</g>
	<polygon class="st4" points="373.9,131.4 373.9,76.4 421.5,48.9 469.1,76.4 469.1,131.4 421.5,158.8 	"/>
	<g>
		<defs>
			<polygon id="SVGID_3_" points="373.9,131.4 373.9,76.4 421.5,48.9 469.1,76.4 469.1,131.4 421.5,158.8 			"/>
		</defs>
		<clipPath id="SVGID_4_">
			<use xlink:href="#SVGID_3_"  style="overflow:visible;"/>
		</clipPath>
		<polygon class="st5" points="421.5,168.7 421.5,103.9 477.7,71.5 477.7,136.4 		"/>
		<polygon class="st6" points="421.5,168.7 421.5,103.9 365.3,71.5 365.3,136.4 		"/>
	</g>
	<g>
		<polygon class="st0" points="18.9,76.3 18.9,131.3 66.5,158.8 114.1,131.4 114.1,76.4 66.5,48.9 		"/>
		<path class="st0" d="M66.5,27.1L0,65.5v76.8l66.5,38.4l66.5-38.4V65.5L66.5,27.1z M123.7,136.9l-4.8,2.8l-47.6,27.5l-4.8,2.8
			l-4.8-2.8L14,139.7l-4.8-2.8V70.8L14,68l47.6-27.5l4.8-2.8l0,0l4.8,2.8L118.8,68l4.8,2.8L123.7,136.9L123.7,136.9z"/>
	</g>
	<g>
		<polygon points="114.1,131.4 114.1,76.4 18.9,131.4 66.5,158.8 		"/>
		<polygon points="123.7,70.9 123.7,136.9 118.9,139.7 71.3,167.2 66.5,169.9 61.7,167.2 14,139.7 9.3,136.9 0.1,142.2 66.5,180.6 
			133,142.2 133,65.5 		"/>
	</g>
	<polygon class="st7" points="18.9,131.4 18.9,76.4 66.5,48.9 114.1,76.4 114.1,131.4 66.5,158.8 	"/>
	<g>
		<defs>
			<polygon id="SVGID_5_" points="18.9,131.4 18.9,76.4 66.5,48.9 114.1,76.4 114.1,131.4 66.5,158.8 			"/>
		</defs>
		<clipPath id="SVGID_6_">
			<use xlink:href="#SVGID_5_"  style="overflow:visible;"/>
		</clipPath>
		<polygon class="st8" points="66.5,169.6 66.5,104 123.4,71.1 123.4,136.9 		"/>
		<polygon class="st9" points="66.5,169.6 66.5,104 9.6,71.1 9.6,136.9 		"/>
	</g>
</g>
</svg>
