<svg id="Calque_1" data-name="Calque 1" xmlns="http://www.w3.org/2000/svg" viewBox="0 0 180 207.73"><defs><style>.cls-1{fill:#2e3133;}.cls-2{fill:#1eb2fc;}.cls-3{fill:#f0f2f1;}.cls-4,.cls-5{opacity:0.25;}.cls-5{fill:#fff;}</style></defs><title>weblogo</title><polygon class="cls-1" points="0 51.93 89.95 0 179.9 51.93 179.9 155.8 89.95 207.73 0 155.8 0 51.93"/><polygon points="90 207.73 180 155.79 180 51.93 0.08 155.79 90 207.73"/><polygon class="cls-2" points="19.01 144.82 19.01 62.91 89.95 21.95 160.89 62.91 160.89 144.82 89.95 185.78 19.01 144.82"/><path class="cls-3" d="M89.95,29.46l64.44,37.2v74.41l-64.44,37.2-64.44-37.2V66.66l64.44-37.2m0-15-6.5,3.75L19,55.4l-6.5,3.75v89.42l6.5,3.75,64.44,37.2,6.5,3.75,6.5-3.75,64.44-37.2,6.5-3.75V59.15l-6.5-3.75L96.45,18.2l-6.5-3.75Z"/><polygon class="cls-4" points="89.95 178.27 89.95 103.86 154.39 66.66 154.39 141.07 89.95 178.27"/><polygon class="cls-5" points="89.95 178.27 89.95 103.86 25.51 66.66 25.51 141.07 89.95 178.27"/></svg>